<?xml version="1.0" encoding="UTF-8" standalone="no"?><!DOCTYPE svg PUBLIC "-//W3C//DTD SVG 1.1//EN" "http://www.w3.org/Graphics/SVG/1.1/DTD/svg11.dtd"><svg width="100%" height="100%" viewBox="0 200 800 400" version="1.1" xmlns="http://www.w3.org/2000/svg" xmlns:xlink="http://www.w3.org/1999/xlink" xml:space="preserve" xmlns:serif="http://www.serif.com/" style="fill-rule:evenodd;clip-rule:evenodd;stroke-linejoin:round;stroke-miterlimit:2;"><path d="M800,600l0,-400l-800,0l0,400l800,0Z" style="fill:#496f65;"/><path d="M153.1,527.5l25.5,0l0,-34.2l-21.9,0c-8.4,0 -10.2,-3.6 -10.2,-10.2l0,-44.7c0,-21.6 -11.7,-29.1 -27.9,-31.8c16.2,-2.7 27.9,-10.2 27.9,-31.8l0,-57.9c0,-6.6 1.8,-10.2 10.2,-10.2l21.9,0l0,-34.2l-25.5,-0c-24.3,-0 -47.4,9.3 -47.4,43.2l0,54c0,14.1 -5.4,19.8 -17.1,19.8l-17.4,-0l0,34.2l17.4,0c11.7,0 17.1,5.7 17.1,19.8l0,40.8c0,33.9 23.1,43.2 47.4,43.2Z" style="fill:#fff;fill-rule:nonzero;"/><path d="M307,504.55c39.3,0 67.5,-17.4 85.2,-45l-32.7,-22.5c-11.4,17.4 -26.1,30 -52.5,30c-36.9,0 -61.8,-29.1 -61.8,-67.2c0,-38.1 24.9,-66.6 61.8,-66.6c23.4,0 39.9,11.1 49.5,26.7l32.1,-22.8c-18.3,-28.5 -44.7,-41.7 -81.6,-41.7c-58.5,0 -105,44.1 -105,104.4c0,60.3 46.5,104.7 105,104.7Z" style="fill:#fff;fill-rule:nonzero;"/><path d="M586.9,503.8l4.2,0l0,-205.8l-39.3,0l-0,85.5c-0,14.1 0.7,30.2 0.7,30.2c-0,0 -12.1,-11.6 -22,-20.9l-102.9,-96.6l-4.2,0l-0,205.8l39.3,0l-0,-115.7c-0,0 11.1,11.3 21.3,20.9l102.9,96.6Z" style="fill:#fff;fill-rule:nonzero;"/><path d="M621.4,527.5l25.5,0c24.3,0 47.4,-9.3 47.4,-43.2l0,-40.8c0,-14.1 5.4,-19.8 17.1,-19.8l17.4,0l0,-34.2l-17.4,0c-11.7,0 -17.1,-5.7 -17.1,-19.8l0,-54c0,-33.9 -23.1,-43.2 -47.4,-43.2l-25.5,0l0,34.2l21.9,0c8.4,0 10.2,3.6 10.2,10.2l0,57.9c0,21.6 11.7,29.1 27.9,31.8c-16.2,2.7 -27.9,10.2 -27.9,31.8l0,44.7c0,6.6 -1.8,10.2 -10.2,10.2l-21.9,0l0,34.2Z" style="fill:#fff;fill-rule:nonzero;"/></svg>