<?xml version="1.0" encoding="utf-8"?>
<!-- Uploaded to: SVG Repo, www.svgrepo.com, Generator: SVG Repo Mixer Tools -->
<svg fill="#000000" width="800px" height="800px" viewBox="-5 0 32 32" version="1.1" xmlns="http://www.w3.org/2000/svg">
<title>star</title>
<path d="M17.48 26.6c-0.12 0-0.28-0.040-0.4-0.080l-5.96-3.12-5.96 3.12c-0.28 0.16-0.64 0.12-0.88-0.080s-0.4-0.52-0.32-0.8l1.12-6.64-4.84-4.72c-0.24-0.24-0.32-0.56-0.2-0.84 0.080-0.32 0.36-0.52 0.68-0.56l6.68-0.96 3-6.040c0.16-0.28 0.44-0.48 0.76-0.48s0.6 0.2 0.76 0.48l3 6.040 6.68 0.96c0.32 0.040 0.56 0.28 0.68 0.56 0.080 0.32 0 0.64-0.2 0.84l-4.92 4.72 1.12 6.64c0.040 0.32-0.080 0.64-0.32 0.8-0.16 0.12-0.32 0.16-0.48 0.16zM2.64 14.28l3.92 3.84c0.2 0.2 0.28 0.48 0.24 0.76l-0.92 5.4 4.84-2.56c0.24-0.12 0.52-0.12 0.76 0l4.84 2.56-0.92-5.4c-0.040-0.28 0.040-0.56 0.24-0.76l3.92-3.84-5.44-0.8c-0.28-0.040-0.52-0.2-0.64-0.44l-2.44-4.92-2.44 4.92c-0.12 0.24-0.36 0.4-0.64 0.44l-5.32 0.8z"></path>
</svg>